<?xml version="1.0" encoding="utf-8"?>
<svg xmlns="http://www.w3.org/2000/svg" style="margin: auto; display: block; shape-rendering: auto;" width="280" height="250" preserveAspectRatio="xMidYMid">
<style type="text/css">
  text {
    text-anchor: middle; font-size: 80px; opacity: 0;
  }
</style>
<g style="transform-origin:140px 125px;transform:scale(1)">
<g transform="translate(140,125)">
  <g transform="translate(0,0)"><g class="path" style="opacity: 1; transform-origin: -83.355px -5.7373px; animation: 1.96078s linear -0.970588s infinite normal forwards running fade-2dfc15a8-0e89-4eee-b76b-3afa796f964a;"><path d="M34.30-7.15L34.30 0L3.79 0L3.79-7.15L11.29-7.15L11.29-49.10L3.79-49.10L3.79-56.25L26.80-56.25L26.80-7.15L34.30-7.15" fill="#ec1c24" stroke="none" stroke-width="none" transform="translate(-102.4000301361084,22.38769853591919)" style="fill: rgb(236, 28, 36);"></path></g><g class="path" style="opacity: 1; transform-origin: -40.92px -0.7173px; animation: 1.96078s linear -0.647059s infinite normal forwards running fade-2dfc15a8-0e89-4eee-b76b-3afa796f964a;"><path d="M80.66-41.13L80.66-41.13L73.24-28.83L73.24-28.83Q72.77-30.39 72.03-32.34L72.03-32.34L72.03-32.34Q71.29-34.30 70.20-36.00L70.20-36.00L70.20-36.00Q69.10-37.70 67.58-38.85L67.58-38.85L67.58-38.85Q66.05-40 64.06-40L64.06-40L64.06-40Q62.23-40 60.88-39.06L60.88-39.06L60.88-39.06Q59.53-38.13 58.59-36.62L58.59-36.62L58.59-36.62Q57.66-35.12 57.05-33.22L57.05-33.22L57.05-33.22Q56.45-31.33 56.11-29.39L56.11-29.39L56.11-29.39Q55.78-27.46 55.66-25.68L55.66-25.68L55.66-25.68Q55.55-23.91 55.55-22.62L55.55-22.62L55.55 0L42.30 0L42.30-45.12L47.38-45.12L52.73-34.61L52.73-34.61Q53.83-37.15 55.23-39.28L55.23-39.28L55.23-39.28Q56.64-41.41 58.48-42.95L58.48-42.95L58.48-42.95Q60.31-44.49 62.64-45.35L62.64-45.35L62.64-45.35Q64.96-46.21 67.89-46.21L67.89-46.21L67.89-46.21Q69.41-46.21 71.29-45.96L71.29-45.96L71.29-45.96Q73.16-45.70 74.96-45.10L74.96-45.10L74.96-45.10Q76.76-44.49 78.28-43.52L78.28-43.52L78.28-43.52Q79.80-42.54 80.66-41.13" fill="#ec1c24" stroke="none" stroke-width="none" transform="translate(-102.4000301361084,22.38769853591919)" style="fill: rgb(253, 189, 16);"></path></g><g class="path" style="opacity: 1; transform-origin: 18.675px 4.0877px; animation: 1.96078s linear -0.323529s infinite normal forwards running fade-2dfc15a8-0e89-4eee-b76b-3afa796f964a;"><path d="M155.98-26.33L155.98-26.33L155.98-26.33Q155.98-21.68 154.88-16.64L154.88-16.64L154.88-16.64Q153.79-11.60 151.82-6.82L151.82-6.82L151.82-6.82Q149.84-2.03 147.07 2.23L147.07 2.23L147.07 2.23Q144.30 6.48 140.90 9.61L140.90 9.61L135.94 6.91L135.94 6.91Q137.07 4.88 138.01 2.34L138.01 2.34L138.01 2.34Q138.95-0.20 139.73-3.01L139.73-3.01L139.73-3.01Q140.51-5.82 141.09-8.79L141.09-8.79L141.09-8.79Q141.68-11.76 142.09-14.71L142.09-14.71L142.09-14.71Q142.50-17.66 142.70-20.43L142.70-20.43L142.70-20.43Q142.89-23.20 142.89-25.63L142.89-25.63L142.89-25.63Q142.89-26.99 142.81-28.59L142.81-28.59L142.81-28.59Q142.73-30.20 142.48-31.80L142.48-31.80L142.48-31.80Q142.23-33.40 141.72-34.86L141.72-34.86L141.72-34.86Q141.21-36.33 140.33-37.48L140.33-37.48L140.33-37.48Q139.45-38.63 138.14-39.32L138.14-39.32L138.14-39.32Q136.84-40 135-40L135-40L135-40Q133.20-40 131.93-39.04L131.93-39.04L131.93-39.04Q130.66-38.09 129.77-36.56L129.77-36.56L129.77-36.56Q128.87-35.04 128.34-33.13L128.34-33.13L128.34-33.13Q127.81-31.21 127.54-29.28L127.54-29.28L127.54-29.28Q127.27-27.34 127.17-25.59L127.17-25.59L127.17-25.59Q127.07-23.83 127.07-22.62L127.07-22.62L127.07 0L113.91 0L113.91-21.02L113.91-21.02Q113.91-22.38 113.95-24.32L113.95-24.32L113.95-24.32Q113.98-26.25 113.85-28.36L113.85-28.36L113.85-28.36Q113.71-30.47 113.34-32.56L113.34-32.56L113.34-32.56Q112.97-34.65 112.17-36.29L112.17-36.29L112.17-36.29Q111.37-37.93 110-38.96L110-38.96L110-38.96Q108.63-40 106.56-40L106.56-40L106.56-40Q104.80-40 103.61-39.02L103.61-39.02L103.61-39.02Q102.42-38.05 101.62-36.50L101.62-36.50L101.62-36.50Q100.82-34.96 100.37-33.03L100.37-33.03L100.37-33.03Q99.92-31.09 99.71-29.16L99.71-29.16L99.71-29.16Q99.49-27.23 99.45-25.49L99.45-25.49L99.45-25.49Q99.41-23.75 99.41-22.62L99.41-22.62L99.41 0L86.17 0L86.17-45.12L91.25-45.12L96.09-34.61L96.09-34.61Q97.73-40.08 101.27-43.14L101.27-43.14L101.27-43.14Q104.80-46.21 110.66-46.21L110.66-46.21L110.66-46.21Q115.94-46.21 119.41-44.02L119.41-44.02L119.41-44.02Q122.89-41.84 124.88-36.91L124.88-36.91L124.88-36.91Q126.02-39.06 127.40-40.78L127.40-40.78L127.40-40.78Q128.79-42.50 130.49-43.71L130.49-43.71L130.49-43.71Q132.19-44.92 134.26-45.57L134.26-45.57L134.26-45.57Q136.33-46.21 138.83-46.21L138.83-46.21L138.83-46.21Q143.44-46.21 146.70-44.71L146.70-44.71L146.70-44.71Q149.96-43.20 152.03-40.55L152.03-40.55L152.03-40.55Q154.10-37.89 155.04-34.24L155.04-34.24L155.04-34.24Q155.98-30.59 155.98-26.33" fill="#ec1c24" stroke="none" stroke-width="none" transform="translate(-102.4000301361084,22.38769853591919)" style="fill: rgb(0, 102, 178);"></path></g><g class="path" style="opacity: 1; transform-origin: 83.125px 0.352699px; animation: 1.96078s linear 0s infinite normal forwards running fade-2dfc15a8-0e89-4eee-b76b-3afa796f964a;"><path d="M162.46-19.30L162.46-19.30L162.46-19.30Q162.46-22.38 162.99-25.70L162.99-25.70L162.99-25.70Q163.52-29.02 164.51-32.34L164.51-32.34L164.51-32.34Q165.51-35.66 166.91-38.91L166.91-38.91L166.91-38.91Q168.32-42.15 170.08-45.12L170.08-45.12L179.73-45.12L179.73-45.12Q178.75-42.19 177.99-39.00L177.99-39.00L177.99-39.00Q177.23-35.82 176.70-32.64L176.70-32.64L176.70-32.64Q176.17-29.45 175.88-26.41L175.88-26.41L175.88-26.41Q175.59-23.36 175.59-20.74L175.59-20.74L175.59-20.74Q175.59-19.22 175.72-17.48L175.72-17.48L175.72-17.48Q175.86-15.74 176.21-14.00L176.21-14.00L176.21-14.00Q176.56-12.27 177.21-10.66L177.21-10.66L177.21-10.66Q177.85-9.06 178.87-7.83L178.87-7.83L178.87-7.83Q179.88-6.60 181.35-5.88L181.35-5.88L181.35-5.88Q182.81-5.16 184.80-5.16L184.80-5.16L184.80-5.16Q186.76-5.16 188.30-6.04L188.30-6.04L188.30-6.04Q189.84-6.91 191.02-8.34L191.02-8.34L191.02-8.34Q192.19-9.77 193.01-11.60L193.01-11.60L193.01-11.60Q193.83-13.44 194.36-15.37L194.36-15.37L194.36-15.37Q194.88-17.30 195.14-19.16L195.14-19.16L195.14-19.16Q195.39-21.02 195.39-22.50L195.39-22.50L195.39-45.12L208.59-45.12L208.59 0L203.52 0L197.46-10.51L197.46-10.51Q196.33-7.89 194.71-5.76L194.71-5.76L194.71-5.76Q193.09-3.63 191.02-2.11L191.02-2.11L191.02-2.11Q188.95-0.59 186.43 0.23L186.43 0.23L186.43 0.23Q183.91 1.05 180.98 1.05L180.98 1.05L180.98 1.05Q176.29 1.05 172.81-0.47L172.81-0.47L172.81-0.47Q169.34-1.99 167.03-4.69L167.03-4.69L167.03-4.69Q164.73-7.38 163.59-11.11L163.59-11.11L163.59-11.11Q162.46-14.84 162.46-19.30" fill="#ec1c24" stroke="none" stroke-width="none" transform="translate(-102.4000301361084,22.38769853591919)" style="fill: rgb(236, 28, 36);"></path></g></g>
</g>
</g>
<style id="fade-2dfc15a8-0e89-4eee-b76b-3afa796f964a" data-anikit="">@keyframes fade-2dfc15a8-0e89-4eee-b76b-3afa796f964a
{
  0% {
    animation-timing-function: cubic-bezier(0.2057,0.573,0.3723,0.9184);
    opacity: 1;
  }
  100% {
    opacity: 0;
  }
}</style></svg>