<?xml version="1.0" encoding="utf-8"?>
<svg xmlns="http://www.w3.org/2000/svg" style="margin: auto; background: rgb(241, 242, 243); display: block; shape-rendering: auto;" width="280" height="250" preserveAspectRatio="xMidYMid">
<style type="text/css">
  text {
    text-anchor: middle; font-size: 84px; opacity: 0;
  }
</style>
<g style="transform-origin: 140px 125px; transform: scale(0.770642);">
<g transform="translate(140,125)">
  <g transform="translate(0,0)"><g class="path" style="opacity: 1; transform-origin: -113.58px -7.81645px; animation: 3.44828s linear -1.7069s infinite normal forwards running fade-95e96e3b-98dc-40e7-be59-0af57fdd4512;"><path d="M46.73-9.74L46.73 0L5.16 0L5.16-9.74L15.38-9.74L15.38-66.90L5.16-66.90L5.16-76.64L36.51-76.64L36.51-9.74L46.73-9.74" fill="#ec1c24" stroke="none" stroke-width="none" transform="translate(-139.52498245239258,30.50354747772217)" style="fill: rgb(236, 28, 36);"></path></g><g class="path" style="opacity: 1; transform-origin: -55.755px -0.976452px; animation: 3.44828s linear -1.13793s infinite normal forwards running fade-95e96e3b-98dc-40e7-be59-0af57fdd4512;"><path d="M109.90-56.04L109.90-56.04L99.79-39.28L99.79-39.28Q99.15-41.41 98.14-44.07L98.14-44.07L98.14-44.07Q97.13-46.73 95.64-49.04L95.64-49.04L95.64-49.04Q94.15-51.36 92.08-52.93L92.08-52.93L92.08-52.93Q90.00-54.50 87.29-54.50L87.29-54.50L87.29-54.50Q84.78-54.50 82.95-53.22L82.95-53.22L82.95-53.22Q81.11-51.95 79.83-49.90L79.83-49.90L79.83-49.90Q78.56-47.85 77.73-45.27L77.73-45.27L77.73-45.27Q76.91-42.68 76.45-40.05L76.45-40.05L76.45-40.05Q76.00-37.42 75.84-34.99L75.84-34.99L75.84-34.99Q75.68-32.57 75.68-30.82L75.68-30.82L75.68 0L57.64 0L57.64-61.47L64.56-61.47L71.85-47.16L71.85-47.16Q73.34-50.61 75.26-53.52L75.26-53.52L75.26-53.52Q77.17-56.42 79.67-58.52L79.67-58.52L79.67-58.52Q82.18-60.62 85.34-61.79L85.34-61.79L85.34-61.79Q88.51-62.96 92.50-62.96L92.50-62.96L92.50-62.96Q94.58-62.96 97.13-62.62L97.13-62.62L97.13-62.62Q99.69-62.27 102.13-61.45L102.13-61.45L102.13-61.45Q104.58-60.62 106.66-59.29L106.66-59.29L106.66-59.29Q108.73-57.96 109.90-56.04" fill="#ec1c24" stroke="none" stroke-width="none" transform="translate(-139.52498245239258,30.50354747772217)" style="fill: rgb(253, 189, 16);"></path></g><g class="path" style="opacity: 1; transform-origin: 25.44px 5.56855px; animation: 3.44828s linear -0.568966s infinite normal forwards running fade-95e96e3b-98dc-40e7-be59-0af57fdd4512;"><path d="M212.52-35.87L212.52-35.87L212.52-35.87Q212.52-29.54 211.03-22.67L211.03-22.67L211.03-22.67Q209.54-15.81 206.85-9.29L206.85-9.29L206.85-9.29Q204.16-2.77 200.38 3.03L200.38 3.03L200.38 3.03Q196.60 8.83 191.97 13.09L191.97 13.09L185.21 9.42L185.21 9.42Q186.76 6.65 188.04 3.19L188.04 3.19L188.04 3.19Q189.31-0.27 190.38-4.10L190.38-4.10L190.38-4.10Q191.44-7.93 192.24-11.98L192.24-11.98L192.24-11.98Q193.04-16.02 193.60-20.04L193.60-20.04L193.60-20.04Q194.16-24.06 194.42-27.84L194.42-27.84L194.42-27.84Q194.69-31.61 194.69-34.91L194.69-34.91L194.69-34.91Q194.69-36.78 194.58-38.96L194.58-38.96L194.58-38.96Q194.48-41.14 194.13-43.32L194.13-43.32L194.13-43.32Q193.78-45.51 193.09-47.50L193.09-47.50L193.09-47.50Q192.40-49.50 191.20-51.07L191.20-51.07L191.20-51.07Q190.00-52.64 188.22-53.57L188.22-53.57L188.22-53.57Q186.44-54.50 183.94-54.50L183.94-54.50L183.94-54.50Q181.49-54.50 179.76-53.20L179.76-53.20L179.76-53.20Q178.03-51.89 176.81-49.82L176.81-49.82L176.81-49.82Q175.58-47.74 174.86-45.13L174.86-45.13L174.86-45.13Q174.14-42.52 173.77-39.89L173.77-39.89L173.77-39.89Q173.40-37.26 173.27-34.86L173.27-34.86L173.27-34.86Q173.13-32.47 173.13-30.82L173.13-30.82L173.13 0L155.20 0L155.20-28.63L155.20-28.63Q155.20-30.50 155.25-33.13L155.25-33.13L155.25-33.13Q155.30-35.77 155.12-38.64L155.12-38.64L155.12-38.64Q154.93-41.51 154.43-44.36L154.43-44.36L154.43-44.36Q153.92-47.21 152.83-49.44L152.83-49.44L152.83-49.44Q151.74-51.68 149.88-53.09L149.88-53.09L149.88-53.09Q148.01-54.50 145.19-54.50L145.19-54.50L145.19-54.50Q142.80-54.50 141.17-53.17L141.17-53.17L141.17-53.17Q139.55-51.84 138.46-49.74L138.46-49.74L138.46-49.74Q137.37-47.63 136.76-45.00L136.76-45.00L136.76-45.00Q136.14-42.37 135.85-39.73L135.85-39.73L135.85-39.73Q135.56-37.10 135.50-34.73L135.50-34.73L135.50-34.73Q135.45-32.36 135.45-30.82L135.45-30.82L135.45 0L117.41 0L117.41-61.47L124.33-61.47L130.93-47.16L130.93-47.16Q133.16-54.61 137.98-58.78L137.98-58.78L137.98-58.78Q142.80-62.96 150.78-62.96L150.78-62.96L150.78-62.96Q157.96-62.96 162.70-59.98L162.70-59.98L162.70-59.98Q167.44-57.00 170.15-50.30L170.15-50.30L170.15-50.30Q171.70-53.22 173.59-55.56L173.59-55.56L173.59-55.56Q175.48-57.91 177.79-59.56L177.79-59.56L177.79-59.56Q180.11-61.21 182.93-62.08L182.93-62.08L182.93-62.08Q185.75-62.96 189.15-62.96L189.15-62.96L189.15-62.96Q195.43-62.96 199.88-60.91L199.88-60.91L199.88-60.91Q204.32-58.86 207.14-55.25L207.14-55.25L207.14-55.25Q209.96-51.63 211.24-46.65L211.24-46.65L211.24-46.65Q212.52-41.67 212.52-35.87" fill="#ec1c24" stroke="none" stroke-width="none" transform="translate(-139.52498245239258,30.50354747772217)" style="fill: rgb(0, 102, 178);"></path></g><g class="path" style="opacity: 1; transform-origin: 113.255px 0.488544px; animation: 3.44828s linear 0s infinite normal forwards running fade-95e96e3b-98dc-40e7-be59-0af57fdd4512;"><path d="M221.35-26.29L221.35-26.29L221.35-26.29Q221.35-30.50 222.07-35.02L222.07-35.02L222.07-35.02Q222.79-39.54 224.15-44.07L224.15-44.07L224.15-44.07Q225.50-48.59 227.42-53.01L227.42-53.01L227.42-53.01Q229.34-57.43 231.73-61.47L231.73-61.47L244.88-61.47L244.88-61.47Q243.55-57.48 242.51-53.14L242.51-53.14L242.51-53.14Q241.47-48.81 240.75-44.47L240.75-44.47L240.75-44.47Q240.03-40.13 239.64-35.98L239.64-35.98L239.64-35.98Q239.24-31.83 239.24-28.26L239.24-28.26L239.24-28.26Q239.24-26.19 239.42-23.82L239.42-23.82L239.42-23.82Q239.61-21.45 240.09-19.08L240.09-19.08L240.09-19.08Q240.57-16.71 241.44-14.53L241.44-14.53L241.44-14.53Q242.32-12.35 243.71-10.67L243.71-10.67L243.71-10.67Q245.09-8.99 247.09-8.01L247.09-8.01L247.09-8.01Q249.08-7.03 251.80-7.03L251.80-7.03L251.80-7.03Q254.46-7.03 256.56-8.22L256.56-8.22L256.56-8.22Q258.66-9.42 260.26-11.36L260.26-11.36L260.26-11.36Q261.86-13.31 262.97-15.81L262.97-15.81L262.97-15.81Q264.09-18.31 264.81-20.94L264.81-20.94L264.81-20.94Q265.53-23.58 265.87-26.11L265.87-26.11L265.87-26.11Q266.22-28.63 266.22-30.66L266.22-30.66L266.22-61.47L284.21-61.47L284.21 0L277.29 0L269.04-14.32L269.04-14.32Q267.50-10.75 265.29-7.85L265.29-7.85L265.29-7.85Q263.08-4.95 260.26-2.87L260.26-2.87L260.26-2.87Q257.44-0.80 254.01 0.32L254.01 0.32L254.01 0.32Q250.57 1.44 246.58 1.44L246.58 1.44L246.58 1.44Q240.19 1.44 235.46-0.64L235.46-0.64L235.46-0.64Q230.72-2.71 227.58-6.39L227.58-6.39L227.58-6.39Q224.44-10.06 222.90-15.14L222.90-15.14L222.90-15.14Q221.35-20.22 221.35-26.29" fill="#ec1c24" stroke="none" stroke-width="none" transform="translate(-139.52498245239258,30.50354747772217)" style="fill: rgb(236, 28, 36);"></path></g></g>
</g>
</g>
<style id="fade-95e96e3b-98dc-40e7-be59-0af57fdd4512" data-anikit="">@keyframes fade-95e96e3b-98dc-40e7-be59-0af57fdd4512
{
  0% {
    animation-timing-function: cubic-bezier(0.2057,0.573,0.3723,0.9184);
    opacity: 1;
  }
  100% {
    opacity: 0;
  }
}</style></svg>